<?xml version="1.0" encoding="utf-8"?>
<!-- Generator: Adobe Illustrator 19.1.0, SVG Export Plug-In . SVG Version: 6.00 Build 0)  -->
<svg version="1.1" id="Layer_1" xmlns="http://www.w3.org/2000/svg" xmlns:xlink="http://www.w3.org/1999/xlink" x="0px" y="0px"
	 viewBox="0 0 55 26.1" style="enable-background:new 0 0 55 26.1;" xml:space="preserve">
<style type="text/css">
	.st0{fill:#52545F;}
	.st1{fill:#DA1F27;}
</style>
<path class="st0" d="M6.4,12.8h1.5v9.4H6.4V12.8z M6.4,9.3h1.5v1.9H6.4V9.3z M0,14.2v-1.4h1.6v-1.4c0-0.8,0.2-1.3,0.7-1.7
	c0.4-0.4,1.1-0.6,1.9-0.6c0.1,0,0.3,0,0.5,0s0.4,0.1,0.5,0.1v1.3c-0.1,0-0.3-0.1-0.4-0.1c-0.2,0-0.3,0-0.4,0c-0.4,0-0.7,0.1-0.9,0.2
	c-0.2,0.1-0.3,0.4-0.3,0.8v1.3H5v1.4H3.2v8H1.7v-8C1.6,14.2,0,14.2,0,14.2z"/>
<path class="st0" d="M15,20.7c0.4-0.2,0.6-0.5,0.9-0.8c0.2-0.3,0.4-0.7,0.5-1.2c0.1-0.4,0.2-0.9,0.2-1.3c0-0.4,0-0.8-0.1-1.2
	s-0.3-0.8-0.5-1.1s-0.5-0.6-0.8-0.8S14.5,14,14,14s-0.9,0.1-1.3,0.3c-0.4,0.2-0.6,0.4-0.9,0.8c-0.3,0.4-0.4,0.7-0.5,1.1
	c-0.1,0.4-0.2,0.8-0.2,1.3c0,0.4,0,0.8,0.1,1.3c0.1,0.4,0.2,0.8,0.4,1.2c0.2,0.3,0.5,0.6,0.8,0.8s0.8,0.3,1.3,0.3
	C14.2,21,14.7,20.9,15,20.7 M17,25c-0.7,0.8-1.8,1.1-3.3,1.1c-0.4,0-0.9,0-1.3-0.1c-0.5-0.1-0.9-0.3-1.2-0.5
	c-0.4-0.2-0.7-0.5-0.9-0.9s-0.4-0.8-0.4-1.3h1.5c0,0.3,0.1,0.5,0.3,0.7s0.4,0.4,0.6,0.5c0.2,0.1,0.5,0.2,0.8,0.3s0.5,0.1,0.8,0.1
	c0.5,0,0.9-0.1,1.3-0.3c0.4-0.2,0.6-0.4,0.9-0.7c0.2-0.3,0.4-0.7,0.5-1.1c0.1-0.4,0.2-0.9,0.2-1.4v-0.6l0,0c-0.3,0.6-0.7,1-1.2,1.3
	s-1.1,0.4-1.7,0.4c-0.7,0-1.3-0.1-1.8-0.4c-0.5-0.3-1-0.6-1.3-1c-0.4-0.4-0.6-0.9-0.8-1.5s-0.3-1.2-0.3-1.8s0.1-1.1,0.2-1.7
	c0.1-0.6,0.4-1.1,0.7-1.6s0.8-0.9,1.3-1.2c0.6-0.3,1.2-0.5,2-0.5c0.6,0,1.1,0.1,1.6,0.4c0.5,0.3,0.9,0.6,1.2,1.2l0,0V13h1.5v8.6
	C18.1,22.9,17.7,24.1,17,25"/>
<path class="st0" d="M26.1,22.2v-1.5l0,0c-0.3,0.6-0.7,1-1.3,1.3c-0.5,0.3-1.1,0.4-1.8,0.4c-0.6,0-1.1-0.1-1.5-0.2
	c-0.4-0.2-0.7-0.4-1-0.7s-0.4-0.7-0.5-1.1c-0.1-0.4-0.2-0.9-0.2-1.4v-6.2h1.5v6.3c0,0.6,0.2,1,0.5,1.4c0.3,0.3,0.8,0.5,1.4,0.5
	c0.5,0,0.9-0.1,1.2-0.2c0.3-0.1,0.6-0.4,0.9-0.6c0.2-0.3,0.4-0.6,0.5-0.9c0.1-0.4,0.2-0.7,0.2-1.2v-5.3h1.5v9.4
	C27.6,22.2,26.1,22.2,26.1,22.2z"/>
<path class="st0" d="M30.9,12.8v2l0,0c0.4-0.8,0.8-1.3,1.4-1.7c0.5-0.4,1.2-0.5,2.1-0.5v1.6c-0.6,0-1.1,0.1-1.6,0.3
	c-0.4,0.2-0.8,0.4-1.1,0.7s-0.5,0.7-0.6,1.2s-0.2,1-0.2,1.6v4.2h-1.5v-9.4L30.9,12.8L30.9,12.8z"/>
<path class="st0" d="M41.5,15.7c-0.1-0.3-0.3-0.6-0.6-0.8c-0.2-0.2-0.5-0.4-0.8-0.6c-0.3-0.1-0.7-0.2-1.1-0.2s-0.8,0.1-1.1,0.2
	c-0.3,0.1-0.6,0.3-0.8,0.6c-0.2,0.2-0.4,0.5-0.5,0.8s-0.2,0.7-0.2,1h5.4C41.7,16.3,41.7,15.9,41.5,15.7 M41.9,21.7
	c-0.7,0.5-1.6,0.8-2.6,0.8c-0.7,0-1.4-0.1-1.9-0.4c-0.5-0.2-1-0.6-1.4-1s-0.7-1-0.8-1.6c-0.2-0.6-0.3-1.3-0.3-2s0.1-1.4,0.3-2
	s0.5-1.1,0.9-1.5s0.9-0.8,1.4-1s1.1-0.4,1.8-0.4c0.8,0,1.5,0.2,2.1,0.5c0.5,0.3,1,0.8,1.3,1.3s0.6,1.1,0.7,1.7
	c0.1,0.6,0.2,1.2,0.2,1.8h-7c0,0.4,0,0.8,0.1,1.2s0.3,0.7,0.5,1s0.5,0.5,0.9,0.7s0.8,0.3,1.3,0.3c0.7,0,1.2-0.2,1.6-0.5
	s0.7-0.8,0.8-1.4h1.5C43,20.3,42.6,21.2,41.9,21.7"/>
<path class="st1" d="M49.9,25.1V8.9h-6.3V5c0.9,0,1.7,0,2.6-0.2C47,4.6,47.8,4.4,48.4,4c0.7-0.4,1.2-0.9,1.7-1.6
	C50.6,1.8,50.9,1,51,0h4v25L49.9,25.1L49.9,25.1z"/>
</svg>
